<svg id="レイヤー_1" data-name="レイヤー 1" xmlns="http://www.w3.org/2000/svg" viewBox="0 0 500 281"><defs><style>.cls-1,.cls-10{fill:#00bfff;}.cls-14,.cls-2,.cls-4,.cls-5{fill:#ffea55;}.cls-11,.cls-15,.cls-3,.cls-6{fill:none;}.cls-3{stroke:#80dfff;}.cls-10,.cls-11,.cls-13,.cls-14,.cls-15,.cls-3,.cls-4,.cls-5,.cls-6,.cls-8,.cls-9{stroke-linecap:round;stroke-linejoin:round;}.cls-10,.cls-11,.cls-15,.cls-3,.cls-4,.cls-5,.cls-8,.cls-9{stroke-width:4.02px;}.cls-4{stroke:#00bfff;}.cls-10,.cls-11,.cls-5,.cls-8,.cls-9{stroke:#231815;}.cls-13,.cls-14,.cls-6{stroke:#000;stroke-width:2.01px;}.cls-13,.cls-7,.cls-9{fill:#fff;}.cls-8{fill:#80dfff;}.cls-12{fill:#231815;}.cls-15{stroke:#b2ecff;}</style></defs><title>illust のコピー 2</title><path class="cls-1" d="M473.7,279s-.57-30.63-2-34.82c0,0,11.71,27.17,8.85,34.82Z"/><path class="cls-1" d="M458.43,277s-7.7-50.51-18.26-59.34c0,0,12,50.08,5.28,61.36h12.84Z"/><path class="cls-1" d="M87.25,242.32s4,28.9,2.67,36.32h7.93S93.34,247.65,87.25,242.32Z"/><path class="cls-1" d="M38.54,221.58S22,265.91,23.13,279l12-.29S36.45,225.58,38.54,221.58Z"/><rect class="cls-1" x="53.07" y="273.92" width="22.09" height="4.86"/><rect class="cls-1" x="119.16" y="273.92" width="22.09" height="4.86"/><path class="cls-1" d="M374.09,241.66s9.71,24.83,10.56,29.11c0,0,10.28-24,15.42-27.12,0,0-9.42,22.27-9.71,35.39H376.09Z"/><rect class="cls-1" x="340.41" y="273.92" width="22.09" height="4.86"/><rect class="cls-1" x="414.43" y="273.92" width="22.09" height="4.86"/><rect class="cls-1" x="165.17" y="273.92" width="22.09" height="4.86"/><path class="cls-2" d="M263.7,268.8l-47.29-22.46-2.76-22.46,3.24-18.44-8.75-1.27-14-25.14,25.45-18.6,14.58-3.55,39,3.55s24,11.43,26.4,45.32l-35.86,5.12Z"/><path class="cls-3" d="M11.33,162.92s41-34.68,58.8-50.23c13.7-12,33-49,58.79-29.69,18.27,13.7,24.83,18,24.83,18"/><path class="cls-3" d="M294,137.87s21.7-6.08,40.79-20.39c14.18-10.64,22.16-8.87,40.49,11.28"/><path class="cls-3" d="M332.42,154.36s34.25-11.65,66.79-47.1c27.36-29.8,44.87,8.65,60.79,23.85,18.84,18,30.83,24.55,35.11,26.78"/><path class="cls-3" d="M3.63,119.25a216.33,216.33,0,0,0,20.55-18c8.23-8.23,15.41-7.71,21.4-.86s13.7,15.51,18.84,17.22"/><line class="cls-4" x1="163.12" y1="105.21" x2="179.38" y2="102.13"/><line class="cls-4" x1="172.27" y1="124.01" x2="184.81" y2="113.21"/><line class="cls-4" x1="164.64" y1="83.72" x2="180.26" y2="89.18"/><polyline class="cls-5" points="214.89 237.66 206.17 277.12 281.04 277.12 278.13 261.3"/><path class="cls-5" d="M232.22,16.92c14.19-10.64,35.37-8.38,46.23-2.68,23.25,12.22,32.2,27.9,33.38,50"/><path class="cls-5" d="M189.15,75.18s-24.8-29.09-8.54-49.24,61.58-5.66,73.45-.9c22.22,8.92,49.12,27.3,65.5,50.14,15.41,21.51,13.35,45.88-35.09,45.69"/><rect class="cls-6" x="248.5" y="186.06" width="14.19" height="20.1"/><line class="cls-6" x1="249.88" y1="193.95" x2="261.31" y2="193.95"/><line class="cls-6" x1="255.6" y1="195.22" x2="255.6" y2="204.59"/><polygon class="cls-7" points="267.08 263.68 260.94 260.12 252.67 208.05 258.19 211.21 267.08 263.68"/><polyline class="cls-8" points="320.77 202.21 313.1 194.02 251.46 204.93 258.5 213.23"/><rect class="cls-8" x="269.32" y="200.33" width="49.22" height="63.24" transform="translate(116.76 561.81) rotate(-100.04)"/><line class="cls-9" x1="251.46" y1="204.93" x2="260.9" y2="258.25"/><rect class="cls-2" x="270.87" y="185.79" width="28.43" height="31.31" rx="9.45" transform="translate(-52.58 112.92) rotate(-20.55)"/><path class="cls-6" d="M257.82,107.82s1.43-1,1.91-.57,2.64-.13,2.64-.13"/><ellipse class="cls-7" cx="251.68" cy="96.23" rx="36.06" ry="35.76"/><path class="cls-10" d="M259.17,62.24s-4,15.54-26.6,23.31c0,0,6.19-12.72,7.06-15.65S227.06,87,196.91,99.17c-19.93-17.93,1.3-59.23,25.46-59.78,3.86-.09,5.07-7.58,20.69-6.7,14.45.81,28.9,10.57,32.51,13.59s13.91,8.85,16,26.6c5.32,6.5,4.14,19.51-.17,25.2-2.3,3-6-1.5-7.69,2.07C283.67,100.15,266.53,91.29,259.17,62.24Z"/><path class="cls-11" d="M196.91,99.17s1.5,35.76,35,39.11c8.87.89,6.31,12.71,3.94,20.59"/><circle class="cls-9" cx="213.78" cy="102.79" r="22.07"/><line class="cls-9" x1="200.85" y1="120.67" x2="178.67" y2="151.32"/><rect class="cls-10" x="180.84" y="128.27" width="9.06" height="27.59" transform="translate(118.43 -81.69) rotate(35.88)"/><circle class="cls-12" cx="221.99" cy="100.15" r="4.12"/><path class="cls-9" d="M248.06,100.5a6.25,6.25,0,0,1,8.3-1.31"/><ellipse class="cls-6" cx="237.47" cy="124" rx="3.94" ry="4.53"/><path class="cls-9" d="M283.08,100a8.33,8.33,0,0,1,7.69-1.16c4.64,1.8,6.54,8.06,4.24,14s-7.93,9.26-12.57,7.46c-2.82-1.1-4.63-3.85-5.1-7.16"/><path class="cls-9" d="M178,133.65c4.59-1,14.86,8.11,14.55,11s-1,3.24-2.53,4.87c0,0-.64,3.56-3.17,4.86s-2.57,5.86-5.74,6.84-11.47-4-12.28-7.49C167,145.74,173.54,134.64,178,133.65Z"/><path class="cls-11" d="M280.5,119.78c-9.24,10.8-16.33,14.94-21.65,17.61-6,5,1.08,21.09,2.66,22.66"/><polygon class="cls-5" points="242.79 157.49 262.1 147.05 268.99 157.3 251.26 174.24 242.79 157.49"/><polygon class="cls-5" points="234.91 148.92 241.41 157.69 231.98 174.16 228.11 159.86 234.91 148.92"/><path class="cls-9" d="M229.52,155.36s-10.28,3.31-14.12,6.27S195.89,177,194.12,178.18"/><path class="cls-11" d="M269,157.3s1.19-1.19,10.64,5.12,22.47,40.19,23.65,46.5"/><line class="cls-11" x1="267.94" y1="196.13" x2="273.33" y2="216.8"/><path class="cls-9" d="M281.21,216.8s15.24,40.36-.72,44.5c0,0-5.32,7.09,4.73,10.64,0,0,7.09,4.73,9.46,5.32s4.73-1.78,6.5-3,3.14.17,5.91-2.95c4.73-5.32,2.49-16.72,2.49-16.72s-4.72-30.34-11.42-42.16"/><path class="cls-9" d="M194.12,146.46s-5.32,7.88-4.34,10,2.57,3.54,4.93,2.16,7.28-10.15,6.3-11.62C197.86,142.32,194.12,146.46,194.12,146.46Z"/><path class="cls-9" d="M216.58,175.82a58,58,0,0,1,1.49,10.24"/><path class="cls-11" d="M216.89,204.59s-1.1,10.64-3.07,13.79.4,7.49,2.76,9.46,33.43,2.77,37.76,2"/><path class="cls-13" d="M241.41,157.69a585.62,585.62,0,0,0-6.82,72.43"/><path class="cls-11" d="M215.4,228.23l-.51,9.43A136.63,136.63,0,0,0,257,239.14"/><rect class="cls-6" x="230.77" y="230.6" width="8.86" height="8.72" transform="translate(13.26 -12.56) rotate(3.15)"/><rect class="cls-5" x="268.64" y="203.69" width="37.36" height="10" transform="translate(-49.82 97.15) rotate(-17.69)"/><polygon class="cls-5" points="206.69 208.66 188.6 179.56 197.27 173.85 214.49 202.4 206.69 208.66"/><path class="cls-11" d="M172.44,160.45s-21.67,50.44,2.37,54.38c0,0,6.7,1.18,28.18-12"/><rect class="cls-14" x="215.7" y="185.08" width="12.81" height="20.1" transform="translate(9.95 -10.78) rotate(2.84)"/><line class="cls-6" x1="227.37" y1="193.22" x2="217.06" y2="192.71"/><line class="cls-6" x1="222.15" y1="194.24" x2="221.69" y2="203.59"/><path class="cls-9" d="M194.32,160.25s0,10.05-9.07,8.28"/><path class="cls-9" d="M186.83,169.71s0,25.61-2.56,29.75"/><path class="cls-6" d="M281.21,15s-20.61-2-25.34,9.77"/><path class="cls-6" d="M288.3,21.34s6.19,14.1.67,22"/><path class="cls-6" d="M247.59,85.89s2.57-6.31,9.07-1.19"/><path class="cls-6" d="M287.79,105.59s1.18,6.5-1.77,7.09-2.45-2.43.65-3.08"/><path class="cls-11" d="M35.12,277.34c-4.19-31.21,9.61-69.93,9.61-69.93-18,30-21.41,69.92-21.41,69.92-2.79-35.62-20.93-51.18-20.93-51.18"/><path class="cls-11" d="M446.59,278.33c4.18-31.2-9.71-70.92-9.71-70.92,18,30,21.41,70.64,21.41,70.64,0-32.83,18.9-44.33,18.9-44.33"/><path class="cls-11" d="M113.26,242.4s-12.94,17.26-15.41,34.53c0,0-2.46-28.36-15.41-49.94,0,0,9.93,27.88,6.92,50.35"/><path class="cls-11" d="M496.86,242.4s-12.69,11.91-15.41,34.53c0,0-2.47-28.36-15.41-49.94,0,0,9.39,29,6.38,51.48"/><path class="cls-11" d="M375.34,277.34c3-22.47-6.92-50.35-6.92-50.35,12.95,21.58,15.42,49.94,15.42,49.94,2.46-17.27,15.41-34.53,15.41-34.53"/><path class="cls-10" d="M187.13,276.19s-1.72-23.11-7.71-30c0,0,.86,23.11-1.71,30.82,0,0-7.71-46.24-28.26-75.35,0,0,18.08,62.56,15.7,75.64"/><path class="cls-10" d="M436.6,277.9s-2-24.82-8-31.67c0,0,.85,24-1.72,31.67,0,0-7.7-47.09-28.25-76.2,0,0,18.07,62.56,15.69,75.64"/><path class="cls-10" d="M141.29,277.71s-3.5-28.53,7.53-53.65c0,0-13.32,8-18.64,47.95,0,0,3.42-43.76-14.08-65.08,0,0,6.47,24,2.28,70.41"/><path class="cls-10" d="M340.13,277.9s3-28.72-8.07-53.84c0,0,13.32,8,18.65,47.95,0,0-3.43-43.76,14.08-65.08,0,0-6.47,24-2.29,70.41"/><path class="cls-10" d="M53.76,277s4.57-28.55-6.22-41.86c0,0,14.08,4.56,17.51,42.24,0,0,1.14-33.87,11.79-63.94,0,0-3.67,37.49-2.28,63.56"/><path class="cls-15" d="M199.55,98.1c-.23.4-.46.81-.67,1.25"/><path class="cls-15" d="M216.22,88.51A18.29,18.29,0,0,0,203,93.63"/><path class="cls-6" d="M259.61,110s1.44-1,1.92-.57,2.63-.13,2.63-.13"/></svg>